<svg width="100" height="63" viewBox="0 0 100 63" fill="none" xmlns="http://www.w3.org/2000/svg">
<path d="M4.67549 7.84578C8.23317 6.13007 11.911 4.92753 15.615 4.26889C17.9807 3.79581 20.6093 3.38985 23.4076 3.0557C26.4039 2.67922 29.3913 2.53886 32.3483 2.63563C33.9394 2.69442 35.511 2.87404 37.0531 3.17335C38.6598 3.46154 40.2207 3.919 41.7167 4.54021C43.2585 5.15544 44.7054 5.98854 46.0272 7.02211C47.3783 8.04225 48.5752 9.28795 49.585 10.725L49.7458 10.9688C49.6525 11.0173 49.5477 11.05 49.4467 11.0952C45.6353 12.8262 42.2558 15.8575 39.8165 19.7331C38.5962 21.7113 37.7114 23.8995 37.2159 26.1646C36.6955 28.5371 36.7039 30.9404 37.2405 33.1452C37.491 34.3224 37.9115 35.4205 38.486 36.3983C39.1221 37.5005 39.9921 38.3872 41.0299 38.9909C42.054 39.5458 43.1997 39.8298 44.3922 39.8243C45.5847 39.8188 46.7971 39.5239 47.9501 38.959C50.0386 37.9344 51.843 36.1492 53.0495 33.9137C54.1641 31.8723 54.9414 29.653 55.3372 27.3829C55.7431 25.1518 55.8502 22.9091 55.6547 20.7338C55.4053 18.0205 54.7426 15.439 53.695 13.1001C54.2481 12.9845 54.8023 12.9103 55.3541 12.878C58.6113 12.6603 61.7719 13.2717 64.6071 14.6678C67.2612 15.9478 69.6736 17.709 71.7625 19.8915C73.5967 21.7853 75.1888 23.9609 76.5036 26.3704C77.5758 28.454 78.4662 30.6702 79.1641 32.9921C80.2908 36.6064 81.0464 40.4061 81.4173 44.3229C81.685 46.9451 81.7736 49.6139 81.6821 52.3066C81.5961 54.469 81.468 56.0419 81.3426 57.2642C81.2494 58.3242 81.1627 59.0242 81.116 59.5651L80.7841 58.9081C79.8379 57.0349 78.9522 55.3632 78.1727 53.9782C76.6098 51.2177 75.4956 49.5483 75.1685 49.7838C74.8414 50.0194 75.3922 51.9453 76.5389 54.9586C77.1083 56.4746 77.8268 58.2406 78.6601 60.187L78.9759 60.9252C79.1086 61.245 79.267 61.5474 79.4493 61.8289C79.5692 62.007 79.704 62.1706 79.8522 62.318C80.0402 62.506 80.2541 62.6593 80.4876 62.7736C80.9686 63.009 81.5245 63.0514 82.0744 62.8947C82.7693 62.6466 83.4343 62.2564 84.0348 61.7445L85.495 60.6797C93.518 54.6166 99.7432 49.2117 99.3644 48.6008C98.9857 47.99 92.1717 52.3984 84.141 58.4582L83.0893 59.267C83.2639 58.6995 83.4066 58.1245 83.5167 57.5457C83.8755 55.8231 84.1216 54.0896 84.253 52.36C84.495 49.5116 84.5074 46.6794 84.2899 43.8992C83.996 39.7303 83.2637 35.6827 82.1081 31.84C81.3571 29.3063 80.3888 26.891 79.2159 24.6256C77.7776 21.9515 76.024 19.5407 73.996 17.4496C71.6689 15.0161 68.9764 13.0584 66.0125 11.6449C62.7263 10.0434 59.0634 9.35899 55.2934 9.64206C54.2074 9.71846 53.116 9.92012 52.036 10.2439C51.8217 9.91146 51.6073 9.57899 51.3735 9.27122C50.2189 7.6825 48.8591 6.30891 47.3306 5.18743C45.8533 4.09268 44.2446 3.21705 42.537 2.57826C40.9149 1.95043 39.2256 1.50121 37.4898 1.23614C35.8706 0.960572 34.2223 0.811017 32.5559 0.788455C29.5189 0.759537 26.4535 0.988634 23.3848 1.47389C20.5289 1.90101 17.8906 2.40178 15.4699 2.97622C11.7022 3.79826 7.98672 5.23943 4.44376 7.25309C3.50913 7.8012 2.60336 8.42537 1.73445 9.12008C1.15374 9.61119 0.87694 9.85697 0.891883 9.92925C0.906825 10.0015 2.22642 9.09719 4.69093 7.85231L4.67549 7.84578ZM50.4379 14.1748C50.7216 14.0419 51.0129 13.9342 51.3041 13.8264C52.3411 16.0735 52.9759 18.5781 53.1766 21.2144C53.3191 23.1406 53.197 25.1207 52.8147 27.0861C52.4549 29.0163 51.7708 30.8978 50.8017 32.6226C49.888 34.2661 48.5388 35.5698 46.9866 36.3089C46.2269 36.6817 45.428 36.8769 44.642 36.8818C43.856 36.8867 43.1005 36.7011 42.4247 36.3373C41.1458 35.4401 40.2734 33.9817 39.9773 32.2463C39.5722 30.4888 39.5867 28.5797 40.0193 26.7011C40.4609 24.8384 41.2186 23.046 42.2471 21.4313C43.2722 19.8043 44.5038 18.3453 45.8927 17.1127C47.2798 15.8672 48.8113 14.8717 50.4225 14.1683" fill="#072333"/>
</svg>
