<svg width="50" height="57" viewBox="0 0 50 57" fill="none" xmlns="http://www.w3.org/2000/svg">
<g clip-path="url(#clip0_147_9)">
<path d="M34.3617 23.5345C34.9085 22.993 35.3263 22.3352 35.5841 21.6101C35.8419 20.885 35.9331 20.1111 35.8508 19.3459C35.7685 18.5808 35.5149 17.8439 35.1088 17.1902C34.7027 16.5365 34.1546 15.9826 33.5051 15.5698C32.8556 15.1569 32.1215 14.8957 31.3572 14.8054C30.593 14.7152 29.8182 14.7982 29.0904 15.0485C28.3627 15.2987 27.7006 15.7097 27.1534 16.2508C26.6063 16.792 26.188 17.4495 25.9298 18.1745C25.3148 18.059 24.6837 18.059 24.0687 18.1745C23.8124 17.4468 23.3951 16.7863 22.848 16.2424C22.3008 15.6985 21.6379 15.2851 20.9088 15.0331C20.1796 14.7811 19.4029 14.6969 18.6366 14.787C17.8704 14.877 17.1344 15.1388 16.4834 15.553C15.8325 15.9671 15.2835 16.5229 14.8773 17.1788C14.4711 17.8347 14.2182 18.5739 14.1375 19.3412C14.0569 20.1084 14.1505 20.884 14.4113 21.6101C14.6722 22.3362 15.0936 22.994 15.6442 23.5345C14.5231 24.1755 13.5906 25.1005 12.9406 26.2164C12.2905 27.3323 11.9458 28.5996 11.9412 29.891C11.9501 30.104 12.041 30.3052 12.1949 30.4527C12.3487 30.6002 12.5536 30.6825 12.7667 30.6825C12.9799 30.6825 13.1847 30.6002 13.3386 30.4527C13.4924 30.3052 13.5833 30.104 13.5923 29.891C13.5962 28.7462 13.9458 27.6292 14.5953 26.6864C15.2448 25.7436 16.1639 25.0189 17.2322 24.6073C17.8688 24.8807 18.5545 25.0216 19.2474 25.0212C19.5605 25.0205 19.8729 24.9915 20.1808 24.9346C20.4387 25.6576 20.8561 26.3133 21.4019 26.8529C20.2771 27.4892 19.3414 28.413 18.6908 29.5296C18.0402 30.6462 17.6979 31.9157 17.6989 33.2081C17.7079 33.421 17.7988 33.6222 17.9527 33.7697C18.1065 33.9172 18.3114 33.9996 18.5245 33.9996C18.7376 33.9996 18.9425 33.9172 19.0964 33.7697C19.2502 33.6222 19.3411 33.421 19.3501 33.2081C19.3487 32.096 19.6756 31.0083 20.29 30.0814C20.9044 29.1545 21.7788 28.4296 22.8036 27.9977C22.8583 27.9744 22.9105 27.9454 22.9592 27.9111C23.5993 28.1906 24.2899 28.3359 24.9883 28.3382C25.6868 28.3405 26.3783 28.1996 27.0203 27.9243C28.0882 28.3363 29.0069 29.0611 29.6561 30.0039C30.3053 30.9466 30.6547 32.0634 30.6587 33.2081C30.6677 33.421 30.7586 33.6222 30.9124 33.7697C31.0663 33.9172 31.2711 33.9996 31.4843 33.9996C31.6974 33.9996 31.9023 33.9172 32.0561 33.7697C32.21 33.6222 32.3009 33.421 32.3098 33.2081C32.3052 31.9168 31.9605 30.6496 31.3104 29.534C30.6604 28.4183 29.7279 27.4936 28.6068 26.8529C29.1533 26.3126 29.5716 25.6566 29.8309 24.9332C30.1383 24.99 30.4503 25.019 30.7629 25.0198C31.4562 25.0203 32.1424 24.8794 32.7795 24.6059C33.8474 25.0179 34.7661 25.7427 35.4153 26.6854C36.0645 27.6282 36.414 28.7449 36.4179 29.8896C36.4269 30.1025 36.5178 30.3038 36.6717 30.4513C36.8255 30.5987 37.0304 30.6811 37.2435 30.6811C37.4566 30.6811 37.6615 30.5987 37.8154 30.4513C37.9692 30.3038 38.0601 30.1025 38.0691 29.8896C38.0647 28.5981 37.7201 27.3306 37.0701 26.2147C36.42 25.0988 35.4874 24.1738 34.3661 23.533L34.3617 23.5345ZM19.8741 23.213C19.8741 23.2453 19.8741 23.2776 19.8741 23.3085C19.6641 23.3485 19.4508 23.3687 19.2371 23.3686C18.6004 23.3685 17.976 23.1934 17.4321 22.8625C16.8882 22.5316 16.4456 22.0576 16.1528 21.4922C15.86 20.9269 15.7282 20.2919 15.7718 19.6567C15.8154 19.0216 16.0327 18.4105 16.4 17.8905C16.7673 17.3704 17.2704 16.9613 17.8545 16.7078C18.4385 16.4543 19.081 16.3662 19.7117 16.453C20.3424 16.5399 20.9371 16.7984 21.4309 17.2003C21.9247 17.6023 22.2985 18.1322 22.5115 18.7321C21.7116 19.1756 21.0448 19.8249 20.5803 20.6128C20.1158 21.4007 19.8704 22.2984 19.8697 23.213H19.8741ZM21.5252 23.213C21.5252 22.5259 21.729 21.8543 22.1107 21.283C22.4924 20.7117 23.035 20.2664 23.6698 20.0034C24.3046 19.7405 25.0031 19.6717 25.677 19.8058C26.3509 19.9398 26.9699 20.2707 27.4558 20.7565C27.9416 21.2424 28.2725 21.8614 28.4065 22.5353C28.5406 23.2092 28.4718 23.9077 28.2088 24.5425C27.9459 25.1773 27.5006 25.7199 26.9293 26.1016C26.358 26.4833 25.6864 26.6871 24.9993 26.6871C24.0782 26.6859 23.1953 26.3195 22.544 25.6683C21.8928 25.017 21.5264 24.134 21.5252 23.213ZM30.1215 23.3085C30.1215 23.2776 30.1215 23.2453 30.1215 23.213C30.1208 22.2984 29.8754 21.4007 29.4109 20.6128C28.9464 19.8249 28.2796 19.1756 27.4797 18.7321C27.6926 18.1325 28.0661 17.6028 28.5596 17.2009C29.053 16.7991 29.6473 16.5404 30.2777 16.4533C30.908 16.3661 31.5502 16.4538 32.1342 16.7067C32.7181 16.9596 33.2214 17.3681 33.589 17.8875C33.9567 18.4069 34.1746 19.0173 34.219 19.6521C34.2634 20.287 34.1326 20.9218 33.8409 21.4873C33.5491 22.0529 33.1076 22.5274 32.5646 22.8592C32.0215 23.1909 31.3978 23.3672 30.7614 23.3686C30.5477 23.3686 30.3344 23.3484 30.1244 23.3085H30.1215Z" fill="#244D4D"/>
<path d="M46.3792 35.6797V20.674C47.0778 20.543 47.7349 20.2465 48.2952 19.8092C48.8556 19.3719 49.303 18.8065 49.5998 18.1607C49.8965 17.5148 50.0341 16.8071 50.001 16.0971C49.9679 15.3871 49.7649 14.6953 49.4093 14.0799C49.0536 13.4645 48.5555 12.9433 47.9569 12.5601C47.3582 12.1769 46.6764 11.9428 45.9686 11.8775C45.2608 11.8122 44.5476 11.9176 43.889 12.1848C43.2303 12.4521 42.6453 12.8733 42.183 13.4132L29.1939 5.91334C29.3606 5.442 29.4455 4.94561 29.4449 4.44565C29.4456 3.79842 29.305 3.15882 29.0329 2.57158C28.7607 1.98433 28.3637 1.46362 27.8694 1.04576C27.3751 0.627905 26.7956 0.323014 26.1712 0.152388C25.5469 -0.0182391 24.8928 -0.0504923 24.2547 0.0578974C23.6167 0.166287 23.0099 0.412707 22.477 0.779921C21.944 1.14713 21.4976 1.62628 21.169 2.18391C20.8405 2.74154 20.6376 3.36419 20.5747 4.00835C20.5117 4.65251 20.5902 5.30265 20.8046 5.91334L7.81693 13.4132C7.35455 12.8743 6.76975 12.454 6.11152 12.1875C5.45328 11.921 4.74077 11.8162 4.03367 11.8817C3.32657 11.9473 2.64548 12.1813 2.04744 12.5642C1.4494 12.9472 0.951829 13.4678 0.596406 14.0826C0.240983 14.6974 0.0380584 15.3884 0.00462917 16.0977C-0.0288001 16.8071 0.108238 17.5141 0.404268 18.1596C0.700298 18.8051 1.1467 19.3702 1.70608 19.8077C2.26545 20.2452 2.92152 20.5422 3.61932 20.674V35.6797C2.921 35.8107 2.26426 36.1073 1.70414 36.5444C1.14402 36.9815 0.696831 37.5466 0.400051 38.1921C0.103272 38.8377 -0.0344562 39.545 -0.00158775 40.2547C0.0312807 40.9645 0.233787 41.656 0.58896 42.2714C0.944133 42.8867 1.44163 43.408 2.03975 43.7915C2.63788 44.175 3.31921 44.4096 4.02665 44.4755C4.7341 44.5415 5.44704 44.4369 6.10575 44.1705C6.76445 43.9042 7.34973 43.4839 7.81253 42.9448L20.8046 50.4447C20.5697 51.1149 20.4987 51.8317 20.5977 52.5349C20.6967 53.2382 20.9628 53.9075 21.3736 54.4868C21.7844 55.0661 22.3281 55.5386 22.959 55.8646C23.5899 56.1907 24.2898 56.3608 25 56.3608C25.7102 56.3608 26.41 56.1907 27.041 55.8646C27.6719 55.5386 28.2155 55.0661 28.6263 54.4868C29.0372 53.9075 29.3032 53.2382 29.4022 52.5349C29.5012 51.8317 29.4303 51.1149 29.1954 50.4447L42.186 42.9448C42.6489 43.483 43.234 43.9025 43.8924 44.1681C44.5507 44.4338 45.2631 44.5379 45.9699 44.4716C46.6768 44.4054 47.3574 44.1708 47.955 43.7875C48.5525 43.4042 49.0495 42.8833 49.4044 42.2684C49.7593 41.6536 49.9617 40.9626 49.9947 40.2535C50.0277 39.5443 49.8904 38.8376 49.5941 38.1924C49.2979 37.5472 48.8514 36.9824 48.2921 36.5453C47.7327 36.1081 47.0768 35.8113 46.3792 35.6797ZM45.5543 13.5175C46.1059 13.5175 46.645 13.681 47.1036 13.9874C47.5622 14.2938 47.9196 14.7294 48.1307 15.2389C48.3417 15.7485 48.397 16.3092 48.2894 16.8501C48.1818 17.3911 47.9162 17.8879 47.5262 18.2779C47.1362 18.6679 46.6393 18.9335 46.0984 19.0411C45.5574 19.1487 44.9967 19.0935 44.4872 18.8825C43.9776 18.6714 43.5421 18.3139 43.2357 17.8554C42.9293 17.3968 42.7657 16.8576 42.7657 16.3061C42.768 15.5672 43.0626 14.8593 43.585 14.3368C44.1075 13.8143 44.8155 13.5198 45.5543 13.5175ZM25.0066 1.65703C25.7477 1.65703 26.4585 1.95144 26.9826 2.47551C27.5067 2.99958 27.8011 3.71038 27.8011 4.45153C27.8011 5.19267 27.5067 5.90344 26.9826 6.4275C26.4585 6.95157 25.7477 7.24602 25.0066 7.24602C24.2654 7.24602 23.5546 6.95157 23.0306 6.4275C22.5065 5.90344 22.2121 5.19267 22.2121 4.45153C22.2121 3.71038 22.5065 2.99958 23.0306 2.47551C23.5546 1.95144 24.2654 1.65703 25.0066 1.65703ZM1.65848 16.312C1.65848 15.7604 1.82203 15.2213 2.12844 14.7627C2.43486 14.3041 2.87038 13.9467 3.37994 13.7356C3.88949 13.5245 4.45019 13.4693 4.99113 13.5769C5.53207 13.6845 6.02896 13.9501 6.41895 14.3401C6.80895 14.7301 7.07454 15.227 7.18214 15.7679C7.28974 16.3089 7.23451 16.8696 7.02345 17.3791C6.81239 17.8887 6.45496 18.3242 5.99637 18.6306C5.53779 18.937 4.99864 19.1006 4.4471 19.1006C3.70822 19.0982 3.00028 18.8037 2.47781 18.2813C1.95534 17.7588 1.6608 17.0508 1.65848 16.312ZM4.4471 42.8479C3.89556 42.8479 3.35641 42.6844 2.89782 42.378C2.43923 42.0715 2.08181 41.636 1.87075 41.1264C1.65968 40.6169 1.60446 40.0562 1.71206 39.5153C1.81966 38.9743 2.08525 38.4774 2.47525 38.0874C2.86524 37.6974 3.36212 37.4319 3.90306 37.3243C4.444 37.2167 5.0047 37.2719 5.51426 37.4829C6.02381 37.694 6.45933 38.0514 6.76575 38.51C7.07217 38.9686 7.23572 39.5077 7.23572 40.0593C7.2334 40.7981 6.93885 41.5061 6.41639 42.0286C5.89392 42.5511 5.18597 42.8456 4.4471 42.8479ZM24.9948 54.7142C24.4433 54.7142 23.9042 54.5507 23.4456 54.2443C22.987 53.9378 22.6296 53.5023 22.4185 52.9928C22.2074 52.4832 22.1522 51.9225 22.2598 51.3816C22.3674 50.8406 22.633 50.3438 23.023 49.9538C23.413 49.5638 23.9099 49.2982 24.4508 49.1906C24.9917 49.083 25.5524 49.1382 26.062 49.3493C26.5716 49.5603 27.0071 49.9177 27.3135 50.3763C27.6199 50.8349 27.7835 51.3741 27.7835 51.9256C27.7808 52.6644 27.4861 53.3721 26.9637 53.8945C26.4413 54.4168 25.7336 54.7115 24.9948 54.7142ZM28.3632 49.0225C27.7068 48.2592 26.8104 47.7417 25.8212 47.5548V44.3743C25.8258 44.263 25.808 44.1518 25.7686 44.0476C25.7292 43.9433 25.6692 43.8481 25.5921 43.7676C25.5149 43.6872 25.4223 43.6232 25.3198 43.5795C25.2173 43.5357 25.107 43.5132 24.9956 43.5132C24.8841 43.5132 24.7738 43.5357 24.6713 43.5795C24.5688 43.6232 24.4762 43.6872 24.3991 43.7676C24.322 43.8481 24.2619 43.9433 24.2225 44.0476C24.1832 44.1518 24.1653 44.263 24.17 44.3743V47.5548C23.1807 47.7426 22.2841 48.2599 21.6265 49.0225L8.6359 41.5211C8.96825 40.5709 8.96825 39.5359 8.6359 38.5857L11.3908 36.9933C11.4895 36.9416 11.5768 36.8705 11.6473 36.7842C11.7178 36.698 11.7702 36.5983 11.8012 36.4913C11.8323 36.3843 11.8413 36.2721 11.8279 36.1615C11.8145 36.0509 11.7788 35.9441 11.723 35.8476C11.6673 35.7512 11.5926 35.667 11.5034 35.6001C11.4143 35.5333 11.3125 35.4851 11.2043 35.4586C11.0961 35.4321 10.9836 35.4277 10.8736 35.4458C10.7637 35.4639 10.6585 35.504 10.5645 35.5637L7.80666 37.1562C7.15007 36.3938 6.2545 35.8764 5.26607 35.6885V20.674C6.25511 20.4865 7.15131 19.9691 7.80812 19.2063L10.5733 20.8046C10.6673 20.8643 10.7725 20.9045 10.8824 20.9225C10.9924 20.9406 11.1049 20.9362 11.2131 20.9097C11.3213 20.8832 11.4231 20.8351 11.5122 20.7682C11.6014 20.7014 11.6761 20.6172 11.7318 20.5207C11.7876 20.4242 11.8233 20.3174 11.8367 20.2068C11.8501 20.0962 11.8411 19.984 11.81 19.877C11.779 19.77 11.7266 19.6704 11.6561 19.5841C11.5856 19.4978 11.4983 19.4267 11.3996 19.375L8.64031 17.7811C8.97266 16.8309 8.97266 15.796 8.64031 14.8457L21.6294 7.34582C22.2859 8.10902 23.1823 8.62653 24.1715 8.81351V11.9984C24.1804 12.2113 24.2714 12.4126 24.4252 12.5601C24.579 12.7076 24.7839 12.7899 24.997 12.7899C25.2102 12.7899 25.4151 12.7076 25.5689 12.5601C25.7227 12.4126 25.8136 12.2113 25.8226 11.9984V8.81645C26.812 8.6298 27.7084 8.11223 28.3647 7.34876L41.3552 14.8487C41.0229 15.7989 41.0229 16.8338 41.3552 17.7841L38.596 19.378C38.424 19.4956 38.3028 19.6738 38.2567 19.877C38.2106 20.0802 38.2429 20.2933 38.3471 20.4736C38.4514 20.654 38.62 20.7883 38.8191 20.8497C39.0182 20.911 39.2331 20.8949 39.4208 20.8046L42.1816 19.2092C42.8384 19.972 43.7346 20.4895 44.7236 20.6769V35.6826C43.7349 35.8708 42.8389 36.3881 42.1816 37.1503L39.4238 35.5579C39.2342 35.4485 39.0089 35.4189 38.7976 35.4756C38.5862 35.5323 38.406 35.6707 38.2966 35.8602C38.1872 36.0498 38.1576 36.275 38.2143 36.4864C38.271 36.6978 38.4093 36.878 38.5989 36.9874L41.3538 38.5799C41.0194 39.5298 41.0194 40.5653 41.3538 41.5153L28.3632 49.0225ZM45.5499 42.8479C44.9984 42.8479 44.4592 42.6844 44.0006 42.378C43.5421 42.0715 43.1846 41.636 42.9736 41.1264C42.7625 40.6169 42.7073 40.0562 42.8149 39.5153C42.9225 38.9743 43.1881 38.4774 43.5781 38.0874C43.9681 37.6974 44.465 37.4319 45.0059 37.3243C45.5468 37.2167 46.1075 37.2719 46.6171 37.4829C47.1266 37.694 47.5622 38.0514 47.8686 38.51C48.175 38.9686 48.3386 39.5077 48.3386 40.0593C48.3362 40.7981 48.0417 41.5061 47.5192 42.0286C46.9967 42.5511 46.2888 42.8456 45.5499 42.8479Z" fill="#244D4D"/>
<path d="M31.915 36.7085H29.4581C29.3467 36.7038 29.2356 36.7217 29.1313 36.761C29.027 36.8004 28.9318 36.8605 28.8514 36.9376C28.7709 37.0147 28.7069 37.1073 28.6632 37.2098C28.6195 37.3123 28.5969 37.4226 28.5969 37.5341C28.5969 37.6455 28.6195 37.7558 28.6632 37.8583C28.7069 37.9608 28.7709 38.0534 28.8514 38.1305C28.9318 38.2077 29.027 38.2677 29.1313 38.3071C29.2356 38.3465 29.3467 38.3644 29.4581 38.3597H31.915C32.1279 38.3507 32.3291 38.2598 32.4766 38.1059C32.6241 37.9521 32.7065 37.7472 32.7065 37.5341C32.7065 37.321 32.6241 37.1161 32.4766 36.9622C32.3291 36.8084 32.1279 36.7175 31.915 36.7085Z" fill="#244D4D"/>
<path d="M31.9151 39.9434H18.085C17.9737 39.9387 17.8625 39.9566 17.7583 39.9959C17.654 40.0353 17.5588 40.0953 17.4783 40.1725C17.3979 40.2496 17.3339 40.3422 17.2901 40.4447C17.2464 40.5472 17.2239 40.6575 17.2239 40.7689C17.2239 40.8804 17.2464 40.9907 17.2901 41.0932C17.3339 41.1957 17.3979 41.2883 17.4783 41.3654C17.5588 41.4426 17.654 41.5026 17.7583 41.542C17.8625 41.5814 17.9737 41.5992 18.085 41.5945H31.9151C32.128 41.5855 32.3293 41.4946 32.4768 41.3408C32.6243 41.1869 32.7066 40.9821 32.7066 40.7689C32.7066 40.5558 32.6243 40.3509 32.4768 40.1971C32.3293 40.0432 32.128 39.9523 31.9151 39.9434Z" fill="#244D4D"/>
<path d="M18.085 38.3597H18.0967C18.3097 38.3507 18.5109 38.2598 18.6584 38.1059C18.8059 37.9521 18.8882 37.7472 18.8882 37.5341C18.8882 37.321 18.8059 37.1161 18.6584 36.9622C18.5109 36.8084 18.3097 36.7175 18.0967 36.7085H18.085C17.9737 36.7038 17.8625 36.7217 17.7583 36.761C17.654 36.8004 17.5588 36.8605 17.4783 36.9376C17.3979 37.0147 17.3339 37.1073 17.2901 37.2098C17.2464 37.3123 17.2239 37.4226 17.2239 37.5341C17.2239 37.6455 17.2464 37.7558 17.2901 37.8583C17.3339 37.9608 17.3979 38.0534 17.4783 38.1305C17.5588 38.2077 17.654 38.2677 17.7583 38.3071C17.8625 38.3465 17.9737 38.3644 18.085 38.3597Z" fill="#244D4D"/>
<path d="M20.9558 38.3597C21.0672 38.3644 21.1783 38.3465 21.2826 38.3071C21.3868 38.2677 21.482 38.2077 21.5625 38.1305C21.6429 38.0534 21.707 37.9608 21.7507 37.8583C21.7944 37.7558 21.817 37.6455 21.817 37.5341C21.817 37.4226 21.7944 37.3123 21.7507 37.2098C21.707 37.1073 21.6429 37.0147 21.5625 36.9376C21.482 36.8605 21.3868 36.8004 21.2826 36.761C21.1783 36.7217 21.0672 36.7038 20.9558 36.7085H20.9441C20.7311 36.7175 20.5299 36.8084 20.3824 36.9622C20.2349 37.1161 20.1526 37.321 20.1526 37.5341C20.1526 37.7472 20.2349 37.9521 20.3824 38.1059C20.5299 38.2598 20.7311 38.3507 20.9441 38.3597H20.9558Z" fill="#244D4D"/>
<path d="M23.815 38.3597C23.9263 38.3644 24.0374 38.3465 24.1417 38.3071C24.246 38.2677 24.3412 38.2077 24.4216 38.1305C24.5021 38.0534 24.5661 37.9608 24.6098 37.8583C24.6535 37.7558 24.6761 37.6455 24.6761 37.5341C24.6761 37.4226 24.6535 37.3123 24.6098 37.2098C24.5661 37.1073 24.5021 37.0147 24.4216 36.9376C24.3412 36.8605 24.246 36.8004 24.1417 36.761C24.0374 36.7217 23.9263 36.7038 23.815 36.7085H23.8032C23.5903 36.7175 23.389 36.8084 23.2416 36.9622C23.0941 37.1161 23.0117 37.321 23.0117 37.5341C23.0117 37.7472 23.0941 37.9521 23.2416 38.1059C23.389 38.2598 23.5903 38.3507 23.8032 38.3597H23.815Z" fill="#244D4D"/>
</g>
<defs>
<clipPath id="clip0_147_9">
<rect width="50" height="56.3595" fill="white"/>
</clipPath>
</defs>
</svg>
