<svg width="50" height="55" viewBox="0 0 50 55" fill="none" xmlns="http://www.w3.org/2000/svg">
<g clip-path="url(#clip0_147_18)">
<path d="M49.698 41.6947L41.1753 23.4986C41.086 23.308 40.9246 23.1607 40.7267 23.0891C40.5288 23.0175 40.3106 23.0274 40.12 23.1167C39.9294 23.206 39.7821 23.3674 39.7105 23.5653C39.6389 23.7632 39.6488 23.9814 39.7381 24.172L48.2594 42.3681C48.4421 42.7602 48.4619 43.2087 48.3146 43.6155C48.1672 44.0222 47.8646 44.3539 47.4731 44.5379L31.1335 52.1911C30.7413 52.3737 30.2928 52.3936 29.8861 52.2462C29.4794 52.0988 29.1477 51.7962 28.9636 51.4047L25.9029 44.8796L33.8539 25.6967C34.0237 25.2852 34.1068 24.8431 34.0978 24.3981C34.0888 23.9531 33.988 23.5147 33.8017 23.1104L29.4521 13.7166L35.0948 15.5053C35.3105 15.5728 35.5098 15.6845 35.6799 15.8332C35.8501 15.982 35.9874 16.1646 36.0831 16.3693L38.1725 20.8262C38.2364 20.9628 38.3379 21.0785 38.4652 21.1595C38.5924 21.2405 38.7402 21.2835 38.8911 21.2836C39.0245 21.2835 39.1558 21.2498 39.2728 21.1856C39.3898 21.1214 39.4886 21.0287 39.5603 20.9161C39.6319 20.8035 39.674 20.6746 39.6826 20.5415C39.6913 20.4083 39.6662 20.2751 39.6096 20.1542L37.5231 15.6973C37.3336 15.2942 37.0629 14.9346 36.7279 14.6412C36.3928 14.3477 36.0008 14.1266 35.5763 13.9919L28.7744 11.8347C30.1763 9.78627 31.653 7.04887 32.1626 5.82347C33.4953 2.60891 32.4196 0.821644 30.9697 0.220238C29.5198 -0.381168 27.4954 0.121425 26.1698 3.33598C25.5966 4.71809 25.0714 7.72934 24.6973 10.3114C24.2428 10.3381 23.7949 10.4333 23.3688 10.5938L13.0828 14.5241C12.6744 14.6811 12.302 14.9193 11.9883 15.2243C11.6745 15.5294 11.4259 15.8948 11.2574 16.2987L0.255653 42.8396C-0.0711498 43.6287 -0.0712244 44.5153 0.255454 45.3045C0.582133 46.0936 1.20882 46.7208 1.99775 47.048L5.21514 48.3807C5.40965 48.4614 5.62824 48.4615 5.82283 48.3811C6.01743 48.3006 6.17208 48.1461 6.25277 47.9516C6.33346 47.7571 6.33357 47.5384 6.25309 47.3438C6.1726 47.1493 6.01811 46.9946 5.8236 46.9139L2.60621 45.5812C2.20627 45.4154 1.88853 45.0976 1.72282 44.6976C1.5571 44.2976 1.55697 43.8481 1.72246 43.4481L12.7256 16.9071C12.8109 16.7023 12.9368 16.5169 13.0958 16.3621C13.2547 16.2073 13.4434 16.0863 13.6503 16.0065L23.9265 12.0832C24.1001 12.0165 24.2797 11.9668 24.4629 11.9349C24.3655 12.6804 24.2851 13.3326 24.2272 13.8211C23.8849 13.8409 23.5495 13.9257 23.239 14.0709C22.6983 14.3247 22.2578 14.7515 21.9873 15.2839C21.7167 15.8163 21.6316 16.4238 21.7453 17.0101C21.8591 17.5964 22.1652 18.1279 22.6153 18.5204C23.0653 18.913 23.6335 19.1442 24.2298 19.1773C24.8261 19.2105 25.4163 19.0436 25.9071 18.7033C26.3978 18.363 26.761 17.8687 26.939 17.2986C27.117 16.7285 27.0996 16.1154 26.8897 15.5563C26.6798 14.9972 26.2893 14.5242 25.7801 14.2121C25.8394 13.7067 25.9298 12.9613 26.0441 12.0945C26.7535 12.3692 27.3288 12.9081 27.6493 13.598L32.3631 23.7796C32.4576 23.9844 32.5086 24.2065 32.5129 24.4319C32.5173 24.6574 32.475 24.8813 32.3885 25.0896L21.3952 51.6165C21.228 52.0137 20.9106 52.3288 20.512 52.493C20.1135 52.6572 19.6663 52.6573 19.2677 52.4932L9.44192 48.4202C9.24818 48.3445 9.03246 48.3477 8.84106 48.4292C8.64967 48.5107 8.49786 48.664 8.41822 48.8562C8.33858 49.0484 8.33746 49.2641 8.41509 49.4571C8.49272 49.6501 8.64292 49.805 8.83346 49.8885L18.6592 53.96C19.0499 54.122 19.4687 54.2054 19.8917 54.2056C20.3147 54.2057 20.7335 54.1225 21.1243 53.9607C21.5151 53.7989 21.8702 53.5617 22.1694 53.2627C22.4685 52.9637 22.7058 52.6086 22.8677 52.2179L25.0884 46.8617L27.5279 52.0725C27.8899 52.846 28.5444 53.4442 29.3473 53.7354C30.1502 54.0266 31.0359 53.987 31.8097 53.6254L48.1493 45.9737C48.9224 45.6111 49.52 44.9566 49.8111 44.1539C50.1023 43.3511 50.0631 42.4657 49.7022 41.6918L49.698 41.6947ZM25.4159 16.8733C25.3479 17.062 25.2294 17.2284 25.0734 17.3544C24.9173 17.4804 24.7296 17.5611 24.5309 17.5878C24.3321 17.6144 24.1298 17.586 23.946 17.5056C23.7623 17.4252 23.6041 17.2959 23.4888 17.1318C23.3735 16.9677 23.3055 16.775 23.2921 16.5749C23.2788 16.3748 23.3206 16.1748 23.4131 15.9968C23.5056 15.8189 23.6451 15.6697 23.8166 15.5656C23.988 15.4615 24.1847 15.4064 24.3853 15.4065C24.5128 15.4064 24.6394 15.4284 24.7594 15.4714C25.0322 15.5704 25.2546 15.7737 25.3776 16.0365C25.5007 16.2994 25.5145 16.6003 25.4159 16.8733ZM27.4163 11.0131C27.0606 10.7882 26.6759 10.6129 26.2728 10.4921C26.63 8.01452 27.1199 5.17974 27.6323 3.94446C27.9937 3.07482 28.9806 1.11389 30.3641 1.68565C31.7476 2.25741 31.0586 4.34398 30.6987 5.21503C30.2102 6.39243 28.7702 9.05638 27.4163 11.0131Z" fill="#244D4D"/>
<path d="M14.2446 26.7767C15.357 26.1843 16.6038 25.8901 17.8637 25.9226C19.1236 25.9552 20.3536 26.3135 21.4339 26.9625C22.5143 27.6116 23.4081 28.5293 24.0285 29.6264C24.6488 30.7234 24.9745 31.9624 24.9739 33.2227C24.9739 33.4333 25.0574 33.6352 25.2062 33.7843C25.3549 33.9333 25.5567 34.0172 25.7673 34.0175C25.9777 34.0175 26.1795 33.934 26.3283 33.7852C26.4771 33.6364 26.5607 33.4346 26.5607 33.2241C26.5567 31.3407 25.959 29.5065 24.8525 27.9823C23.722 26.4225 22.1112 25.2765 20.2671 24.7198C18.6387 24.223 16.9019 24.2044 15.2633 24.6663C13.6247 25.1282 12.1533 26.0511 11.0242 27.3253C9.89503 28.5994 9.15568 30.1711 8.89409 31.8533C8.63251 33.5356 8.85971 35.2575 9.54866 36.8144C10.2376 38.3712 11.3593 39.6973 12.7803 40.635C14.2012 41.5726 15.8617 42.0824 17.564 42.1035C19.2663 42.1246 20.9389 41.6562 22.3827 40.754C23.8264 39.8519 24.9807 38.554 25.708 37.0147C25.7575 36.9197 25.7873 36.8157 25.7956 36.7089C25.8039 36.6021 25.7906 36.4948 25.7564 36.3933C25.7221 36.2918 25.6678 36.1983 25.5965 36.1183C25.5252 36.0384 25.4385 35.9737 25.3416 35.9281C25.2447 35.8825 25.1396 35.8569 25.0325 35.853C24.9255 35.849 24.8188 35.8667 24.7188 35.9051C24.6187 35.9434 24.5275 36.0015 24.4505 36.076C24.3736 36.1505 24.3124 36.2398 24.2708 36.3385C23.6925 37.5617 22.7854 38.6 21.651 39.3375C20.5165 40.0749 19.1994 40.4825 17.8467 40.5146C16.494 40.5466 15.1591 40.202 13.991 39.5191C12.8228 38.8363 11.8676 37.8421 11.2319 36.6476C10.7815 35.8017 10.5022 34.8753 10.4099 33.9214C10.3175 32.9675 10.414 32.0048 10.6937 31.0882C10.9735 30.1716 11.4311 29.319 12.0403 28.5793C12.6496 27.8395 13.3986 27.227 14.2446 26.7767Z" fill="#244D4D"/>
<path d="M20.7274 31.0571C20.6346 30.881 20.5076 30.7251 20.354 30.5986C20.2003 30.4721 20.023 30.3774 19.8323 30.3201L19.4723 30.21L19.7166 29.4067C19.7517 29.3057 19.7661 29.1987 19.759 29.092C19.7518 28.9853 19.7231 28.8811 19.6747 28.7858C19.6264 28.6904 19.5592 28.6058 19.4774 28.537C19.3955 28.4681 19.3006 28.4166 19.1983 28.3853C19.0961 28.354 18.9886 28.3437 18.8822 28.355C18.7759 28.3663 18.6729 28.3989 18.5795 28.4509C18.486 28.5029 18.404 28.5732 18.3384 28.6576C18.2728 28.7421 18.2248 28.8389 18.1975 28.9423L17.9476 29.7639C17.5489 29.6951 17.1389 29.7396 16.7642 29.8922C16.3895 30.0448 16.0651 30.2995 15.8279 30.6273C15.5907 30.9551 15.4502 31.3428 15.4224 31.7465C15.3946 32.1501 15.4805 32.5535 15.6705 32.9107C15.803 33.1622 15.9842 33.3848 16.2036 33.5656C16.4229 33.7464 16.676 33.8818 16.9481 33.9639L17.949 34.2688C18.0213 34.2909 18.0885 34.327 18.1468 34.3751C18.2051 34.4232 18.2533 34.4823 18.2887 34.549C18.3241 34.6158 18.346 34.6889 18.3531 34.7641C18.3602 34.8393 18.3525 34.9152 18.3302 34.9874C18.3083 35.0596 18.2723 35.1268 18.2244 35.1851C18.1765 35.2434 18.1175 35.2917 18.0509 35.3273C17.9843 35.3628 17.9114 35.3849 17.8362 35.3922C17.7611 35.3995 17.6853 35.392 17.6131 35.37L17.1119 35.2175L16.0587 34.8956C16.0968 34.6968 16.0576 34.4909 15.949 34.32C15.8405 34.1491 15.6708 34.0261 15.4747 33.976C15.2785 33.9259 15.0706 33.9526 14.8935 34.0505C14.7163 34.1485 14.5832 34.3104 14.5213 34.5032C14.405 34.8877 14.4458 35.3026 14.6347 35.6571C14.8236 36.0117 15.1453 36.2769 15.5293 36.3949L15.8893 36.505L15.6451 37.3083C15.5843 37.5092 15.6056 37.7259 15.7043 37.9111C15.803 38.0964 15.971 38.2349 16.1717 38.2965C16.2468 38.3192 16.3247 38.331 16.4032 38.3318C16.5737 38.3318 16.7396 38.2768 16.8764 38.1751C17.0132 38.0734 17.1136 37.9303 17.1627 37.7671L17.414 36.9469C17.9574 37.043 18.517 36.9278 18.9783 36.6248C19.4395 36.3218 19.7675 35.854 19.8951 35.3171C20.0226 34.7801 19.9401 34.2148 19.6644 33.7367C19.3887 33.2586 18.9407 32.9041 18.4121 32.7455L17.4126 32.4406C17.2714 32.3921 17.1546 32.2906 17.0867 32.1576C17.0189 32.0247 17.0053 31.8706 17.0489 31.7278C17.0925 31.585 17.1898 31.4647 17.3203 31.3922C17.4508 31.3198 17.6044 31.3009 17.7486 31.3394L18.2483 31.4919L19.3001 31.8138C19.262 32.0126 19.3013 32.2185 19.4098 32.3894C19.5183 32.5603 19.688 32.6833 19.8841 32.7334C20.0803 32.7834 20.2882 32.7568 20.4653 32.6588C20.6425 32.5609 20.7756 32.399 20.8375 32.2062C20.8964 32.0162 20.9168 31.8163 20.8977 31.6183C20.8785 31.4203 20.8202 31.2281 20.726 31.0528L20.7274 31.0571Z" fill="#244D4D"/>
<path d="M44.4376 41.6524L39.3553 30.8525C39.3137 30.7538 39.2526 30.6645 39.1756 30.5901C39.0986 30.5156 39.0074 30.4574 38.9074 30.4191C38.8074 30.3808 38.7007 30.363 38.5936 30.367C38.4866 30.3709 38.3815 30.3965 38.2845 30.4421C38.1876 30.4877 38.1009 30.5524 38.0297 30.6324C37.9584 30.7123 37.904 30.8058 37.8698 30.9073C37.8356 31.0088 37.8222 31.1162 37.8305 31.223C37.8388 31.3298 37.8686 31.4338 37.9182 31.5287L43.0005 42.3286C43.0647 42.4653 43.1665 42.5807 43.294 42.6615C43.4216 42.7423 43.5695 42.785 43.7205 42.7846C43.8539 42.7847 43.9853 42.7511 44.1023 42.6869C44.2193 42.6226 44.3181 42.5298 44.3897 42.4172C44.4612 42.3045 44.5032 42.1756 44.5115 42.0423C44.5199 41.9091 44.4945 41.776 44.4376 41.6552V41.6524Z" fill="#244D4D"/>
<path d="M40.8872 43.5512L35.8049 32.7513C35.7646 32.6503 35.704 32.5587 35.6268 32.482C35.5496 32.4054 35.4576 32.3454 35.3563 32.3058C35.255 32.2662 35.1467 32.2478 35.038 32.2517C34.9293 32.2557 34.8226 32.2819 34.7244 32.3287C34.6263 32.3756 34.5388 32.4421 34.4674 32.5241C34.3959 32.6061 34.3421 32.7019 34.3092 32.8056C34.2763 32.9092 34.265 33.0186 34.2761 33.1267C34.2871 33.2349 34.3203 33.3397 34.3734 33.4346L39.4557 44.2345C39.5198 44.3711 39.6213 44.4866 39.7486 44.5676C39.8758 44.6486 40.0235 44.6917 40.1743 44.6919C40.2915 44.6915 40.4071 44.6654 40.5131 44.6157C40.7036 44.5257 40.8507 44.3638 40.9219 44.1656C40.9931 43.9673 40.9827 43.7489 40.8929 43.5583L40.8872 43.5512Z" fill="#244D4D"/>
</g>
<defs>
<clipPath id="clip0_147_18">
<rect width="50" height="54.2113" fill="white"/>
</clipPath>
</defs>
</svg>
