<svg width="50" height="50" viewBox="0 0 50 50" fill="none" xmlns="http://www.w3.org/2000/svg">
<g clip-path="url(#clip0_146_7)">
<path d="M49.8307 36.7989L35.1267 22.0935L47.3445 9.87562C47.8192 9.40195 48.1959 8.83939 48.4531 8.22008C48.7103 7.60076 48.8429 6.93681 48.8434 6.26621C48.844 5.59542 48.7122 4.93114 48.4557 4.31133C48.1992 3.69153 47.8229 3.12839 47.3485 2.65416C46.8743 2.17975 46.3112 1.80353 45.6914 1.54701C45.0715 1.2905 44.4072 1.15872 43.7365 1.15924C43.0658 1.15959 42.4019 1.29216 41.7825 1.54936C41.1632 1.80656 40.6006 2.18335 40.1271 2.65816L27.9092 14.876L13.2038 0.170597C13.0946 0.0618161 12.9468 0.000732422 12.7927 0.000732422C12.6386 0.000732422 12.4908 0.0618161 12.3817 0.170597L0.171818 12.3805C0.0630368 12.4896 0.00195312 12.6374 0.00195312 12.7915C0.00195312 12.9456 0.0630368 13.0934 0.171818 13.2026L14.8746 27.908L4.23956 38.543C4.17865 38.6049 4.13302 38.6802 4.10632 38.7628C4.10632 38.7695 4.09699 38.7735 4.09566 38.7815L1.18842 48.0828C1.15693 48.1841 1.15373 48.2921 1.17916 48.3951C1.20459 48.4981 1.2577 48.5923 1.33273 48.6673C1.40776 48.7423 1.50187 48.7954 1.60488 48.8209C1.7079 48.8463 1.8159 48.8431 1.91723 48.8116L11.2185 45.9043L11.2372 45.8937C11.3198 45.867 11.3951 45.8214 11.457 45.7605L22.092 35.1254L36.7975 49.8309C36.9066 49.9397 37.0544 50.0007 37.2085 50.0007C37.3626 50.0007 37.5104 49.9397 37.6195 49.8309L49.8294 37.621C49.9382 37.5118 49.9993 37.364 49.9993 37.2099C49.9993 37.0559 49.9382 36.9081 49.8294 36.7989H49.8307ZM13.0825 42.4921L10.7056 40.1165L39.8259 10.9975L42.2016 13.3731L13.0825 42.4921ZM11.0467 44.528L5.47334 38.9547L6.68713 37.7409L12.2591 43.3142L11.0467 44.528ZM36.6282 7.79977L39.0039 10.1754L9.88482 39.2944L7.50787 36.9188L36.6282 7.79977ZM38.6641 5.76393L44.2374 11.3372L43.0236 12.551L37.4503 6.97771L38.6641 5.76393ZM40.9478 3.48023C41.3132 3.11226 41.7476 2.81999 42.2261 2.62017C42.7046 2.42035 43.2179 2.3169 43.7365 2.31573C44.256 2.31415 44.7707 2.4154 45.2509 2.61366C45.7311 2.81192 46.1673 3.10326 46.5344 3.47089C46.9022 3.8379 47.1936 4.27411 47.3919 4.75434C47.5901 5.23458 47.6913 5.74933 47.6896 6.26888C47.6885 6.78766 47.5851 7.30114 47.3853 7.7799C47.1855 8.25865 46.8932 8.69329 46.5251 9.05889L45.0595 10.5245L39.4848 4.95117L40.9478 3.48023ZM12.7907 1.40438L27.0858 15.6981L25.5815 17.201L11.2878 2.9073L12.7907 1.40438ZM13.3237 24.7103L15.2383 22.7956C15.7713 22.248 14.9638 21.4433 14.4162 21.9736L12.5016 23.8882L10.4164 21.803L12.3297 19.8884C12.8627 19.3408 12.0633 18.5374 11.5077 19.0663L9.59303 20.981L7.50787 18.8958L9.42382 16.9812C9.95677 16.4336 9.14936 15.6301 8.60042 16.1591L6.68713 18.0724L4.60196 15.9872L6.51658 14.0739C7.04953 13.525 6.24212 12.7216 5.69451 13.2505L3.77989 15.1651L1.40426 12.7895L10.4644 3.7294L24.7581 18.0244L15.698 27.0846L13.3237 24.7103ZM4.92173 40.0446L9.95811 45.0809L2.63005 47.3699L4.92173 40.0446ZM37.2118 48.5971L34.8362 46.2215L36.7508 44.3068C36.8058 44.2528 36.8496 44.1883 36.8794 44.1171C36.9092 44.046 36.9246 43.9696 36.9246 43.8925C36.9246 43.8153 36.9092 43.7389 36.8794 43.6678C36.8496 43.5967 36.8058 43.5322 36.7508 43.4781C36.6962 43.4235 36.6312 43.3802 36.5597 43.351C36.4883 43.3217 36.4116 43.3069 36.3344 43.3075C36.2571 43.3082 36.1808 43.3242 36.1098 43.3546C36.0387 43.385 35.9745 43.4293 35.9207 43.4848L34.0075 45.3994L31.929 43.3142L33.8436 41.4009C33.8986 41.3468 33.9424 41.2821 33.9722 41.2109C34.0021 41.1396 34.0175 41.0632 34.0175 40.9859C34.0175 40.9086 34.0021 40.8322 33.9722 40.7609C33.9424 40.6897 33.8986 40.6251 33.8436 40.5709C33.7894 40.516 33.7249 40.4724 33.6538 40.4427C33.5826 40.4129 33.5063 40.3977 33.4292 40.3977C33.3521 40.3977 33.2758 40.4129 33.2047 40.4427C33.1335 40.4724 33.069 40.516 33.0148 40.5709L31.1002 42.4855L29.0151 40.4017L30.9297 38.487C30.9852 38.4333 31.0294 38.369 31.0599 38.298C31.0903 38.227 31.1063 38.1506 31.1069 38.0734C31.1075 37.9961 31.0928 37.9195 31.0635 37.848C31.0342 37.7765 30.991 37.7116 30.9363 37.657C30.8817 37.6024 30.8168 37.5593 30.7454 37.5302C30.674 37.501 30.5974 37.4864 30.5203 37.4872C30.4431 37.4879 30.3669 37.504 30.2961 37.5345C30.2252 37.5651 30.1611 37.6094 30.1076 37.665L28.1983 39.5849L26.1131 37.5011L28.0278 35.5864C28.5607 35.0388 27.7533 34.2341 27.2057 34.7644L25.2911 36.679L22.9154 34.3034L31.9756 25.2432L46.2706 39.5369L37.2118 48.5971ZM47.0954 38.7135L32.8003 24.4198L34.3046 22.9156L48.597 37.2106L47.0954 38.7135Z" fill="#244D4D"/>
</g>
<defs>
<clipPath id="clip0_146_7">
<rect width="50" height="50" fill="white"/>
</clipPath>
</defs>
</svg>
