<svg width="50" height="58" viewBox="0 0 50 58" fill="none" xmlns="http://www.w3.org/2000/svg">
<g clip-path="url(#clip0_3266_2129)">
<path d="M21.1888 29.583H1.20372C0.884607 29.5826 0.578685 29.4557 0.353037 29.23C0.127389 29.0044 0.000420165 28.6985 0 28.3793V6.24409C0.000418976 5.92483 0.127337 5.61876 0.35294 5.39286C0.578543 5.16696 0.884462 5.03966 1.20372 5.03882H21.1888C21.5082 5.03924 21.8143 5.16641 22.04 5.3924C22.2657 5.61839 22.3925 5.9247 22.3925 6.24409V28.3793C22.3921 28.6985 22.2651 29.0044 22.0395 29.23C21.8138 29.4557 21.5079 29.5826 21.1888 29.583ZM1.42921 28.1538H20.9617V6.46803H1.42921V28.1538Z" fill="#244D4D"/>
<path d="M15.6119 22.896H6.78101C6.59149 22.896 6.40972 22.8207 6.2757 22.6867C6.14169 22.5527 6.06641 22.3709 6.06641 22.1814V12.4421C6.06683 12.2527 6.14225 12.0712 6.27617 11.9373C6.41009 11.8034 6.59161 11.728 6.78101 11.7275H15.6119C15.8013 11.728 15.9828 11.8034 16.1168 11.9373C16.2507 12.0712 16.3261 12.2527 16.3265 12.4421V22.1814C16.3265 22.3709 16.2512 22.5527 16.1172 22.6867C15.9832 22.8207 15.8014 22.896 15.6119 22.896ZM7.49561 21.4668H14.8973V13.1567H7.49084L7.49561 21.4668Z" fill="#244D4D"/>
<path d="M48.7948 43.2557H26.2975C25.9782 43.2557 25.6721 43.1289 25.4463 42.9031C25.2206 42.6774 25.0938 42.3712 25.0938 42.052V25.0032C25.0946 24.6843 25.2217 24.3788 25.4473 24.1535C25.6729 23.9282 25.9786 23.8014 26.2975 23.801H48.7948C49.114 23.8014 49.4201 23.9283 49.646 24.1539C49.8719 24.3795 49.9992 24.6855 50.0001 25.0047V42.052C49.9996 42.3714 49.8725 42.6776 49.6465 42.9033C49.4205 43.1289 49.1142 43.2557 48.7948 43.2557ZM26.523 41.8265H48.5708V25.235H26.523V41.8265Z" fill="#244D4D"/>
<path d="M40.3273 37.8644H34.7693C34.5798 37.8644 34.398 37.7891 34.264 37.6551C34.13 37.5211 34.0547 37.3393 34.0547 37.1498V29.9053C34.0551 29.7159 34.1305 29.5344 34.2645 29.4005C34.3984 29.2665 34.5799 29.1911 34.7693 29.1907H40.3273C40.5168 29.1907 40.6986 29.266 40.8326 29.4C40.9666 29.534 41.0419 29.7158 41.0419 29.9053V37.145C41.0421 37.2389 41.0238 37.3319 40.988 37.4187C40.9521 37.5055 40.8995 37.5844 40.8331 37.6508C40.7667 37.7172 40.6878 37.7698 40.601 37.8057C40.5142 37.8415 40.4212 37.8598 40.3273 37.8596V37.8644ZM35.4791 36.4352H39.6079V30.6199H35.4791V36.4352Z" fill="#244D4D"/>
<path d="M41.5443 21.1508H26.2994C25.9802 21.1508 25.674 21.0239 25.4483 20.7982C25.2225 20.5725 25.0957 20.2663 25.0957 19.9471V1.20857C25.0961 0.889452 25.2231 0.583529 25.4487 0.357881C25.6744 0.132233 25.9803 0.00530298 26.2994 0.00488281H41.5443C41.8634 0.00530298 42.1693 0.132233 42.395 0.357881C42.6206 0.583529 42.7476 0.889452 42.748 1.20857V19.9471C42.748 20.2663 42.6212 20.5725 42.3954 20.7982C42.1697 21.0239 41.8635 21.1508 41.5443 21.1508ZM26.5233 19.7216H41.3156V1.42932H26.5201L26.5233 19.7216Z" fill="#244D4D"/>
<path d="M37.371 14.1301H30.4695C30.28 14.1301 30.0982 14.0548 29.9642 13.9208C29.8302 13.7868 29.7549 13.6051 29.7549 13.4155V7.73682C29.7553 7.54742 29.8307 7.36588 29.9647 7.23196C30.0986 7.09804 30.2801 7.02264 30.4695 7.02222H37.371C37.5605 7.02222 37.7423 7.09748 37.8763 7.2315C38.0103 7.36551 38.0856 7.5473 38.0856 7.73682V13.4155C38.0858 13.5094 38.0675 13.6025 38.0316 13.6893C37.9958 13.776 37.9431 13.8549 37.8767 13.9213C37.8104 13.9877 37.7315 14.0403 37.6447 14.0762C37.5579 14.112 37.4649 14.1303 37.371 14.1301ZM31.1778 12.7009H36.65V8.45142H31.1778V12.7009Z" fill="#244D4D"/>
<path d="M21.189 53.4586H7.77987C7.46061 53.4578 7.1547 53.3305 6.92909 53.1046C6.70349 52.8787 6.57659 52.5726 6.57617 52.2533V33.0384C6.57701 32.7194 6.7041 32.4137 6.92965 32.1882C7.15521 31.9626 7.46089 31.8356 7.77987 31.8347H21.189C21.5081 31.8351 21.8141 31.9621 22.0397 32.1877C22.2654 32.4134 22.3923 32.7193 22.3927 33.0384V52.2533C22.3923 52.5726 22.2654 52.8787 22.0398 53.1046C21.8142 53.3305 21.5083 53.4578 21.189 53.4586ZM8.00856 52.0294H20.9667V33.2639H8.00856V52.0294Z" fill="#244D4D"/>
<path d="M17.1773 45.2741H11.8035C11.6139 45.2741 11.4322 45.1988 11.2982 45.0648C11.1642 44.9308 11.0889 44.749 11.0889 44.5595V40.7324C11.0889 40.5429 11.1642 40.3611 11.2982 40.2271C11.4322 40.0931 11.6139 40.0178 11.8035 40.0178H17.1773C17.3668 40.0178 17.5486 40.0931 17.6826 40.2271C17.8166 40.3611 17.8919 40.5429 17.8919 40.7324V44.5595C17.8919 44.749 17.8166 44.9308 17.6826 45.0648C17.5486 45.1988 17.3668 45.2741 17.1773 45.2741ZM12.5181 43.8449H16.4627V41.447H12.5181V43.8449Z" fill="#244D4D"/>
<path d="M40.9802 57.3779H26.2975C25.9782 57.3779 25.6721 57.2511 25.4463 57.0253C25.2206 56.7996 25.0938 56.4934 25.0938 56.1742V46.6302C25.0942 46.3111 25.2211 46.0052 25.4468 45.7796C25.6724 45.5539 25.9784 45.4269 26.2975 45.4265H40.9802C41.2992 45.4274 41.6048 45.5545 41.8304 45.78C42.056 46.0056 42.183 46.3112 42.1839 46.6302V56.1742C42.1835 56.4933 42.0565 56.7992 41.8309 57.0249C41.6052 57.2505 41.2993 57.3774 40.9802 57.3779ZM26.5293 55.9487H40.761V46.8557H26.5293V55.9487Z" fill="#244D4D"/>
<path d="M36.3927 53.9636H30.8982C30.7087 53.9636 30.5269 53.8883 30.3929 53.7543C30.2589 53.6203 30.1836 53.4385 30.1836 53.249V49.5569C30.1834 49.463 30.2017 49.37 30.2376 49.2832C30.2734 49.1964 30.326 49.1175 30.3924 49.0511C30.4588 48.9847 30.5377 48.9321 30.6245 48.8963C30.7113 48.8604 30.8043 48.8421 30.8982 48.8423H36.3927C36.5822 48.8423 36.764 48.9176 36.898 49.0516C37.032 49.1856 37.1073 49.3674 37.1073 49.5569V53.249C37.1069 53.4384 37.0315 53.6199 36.8975 53.7539C36.7636 53.8878 36.5821 53.9632 36.3927 53.9636ZM31.6128 52.5344H35.6781V50.2715H31.6128V52.5344Z" fill="#244D4D"/>
</g>
<defs>
<clipPath id="clip0_3266_2129">
<rect width="50" height="57.3779" fill="white"/>
</clipPath>
</defs>
</svg>
