<svg width="50" height="49" viewBox="0 0 50 49" fill="none" xmlns="http://www.w3.org/2000/svg">
<g clip-path="url(#clip0_3266_2108)">
<path d="M4.62185 6.31775H0.420168C0.308733 6.31775 0.201861 6.27334 0.123064 6.19432C0.0442673 6.11529 0 6.00811 0 5.89635V1.68238C0 1.57062 0.0442673 1.46344 0.123064 1.38442C0.201861 1.30539 0.308733 1.26099 0.420168 1.26099H4.62185C4.73328 1.26099 4.84016 1.30539 4.91895 1.38442C4.99775 1.46344 5.04202 1.57062 5.04202 1.68238V5.89635C5.04202 6.00811 4.99775 6.11529 4.91895 6.19432C4.84016 6.27334 4.73328 6.31775 4.62185 6.31775ZM0.840336 5.47495H4.20168V2.10378H0.840336V5.47495Z" fill="#244D4D"/>
<path d="M44.9578 6.31775H40.7561C40.6447 6.31775 40.5378 6.27334 40.459 6.19432C40.3802 6.11529 40.3359 6.00811 40.3359 5.89635V1.68238C40.3359 1.57062 40.3802 1.46344 40.459 1.38442C40.5378 1.30539 40.6447 1.26099 40.7561 1.26099H44.9578C45.0692 1.26099 45.1761 1.30539 45.2549 1.38442C45.3337 1.46344 45.378 1.57062 45.378 1.68238V5.89635C45.378 6.00811 45.3337 6.11529 45.2549 6.19432C45.1761 6.27334 45.0692 6.31775 44.9578 6.31775ZM41.1763 5.47495H44.5376V2.10378H41.1763V5.47495Z" fill="#244D4D"/>
<path d="M4.62185 46.7718H0.420168C0.308733 46.7718 0.201861 46.7274 0.123064 46.6484C0.0442673 46.5694 0 46.4622 0 46.3505V42.1365C0 42.0247 0.0442673 41.9175 0.123064 41.8385C0.201861 41.7595 0.308733 41.7151 0.420168 41.7151H4.62185C4.73328 41.7151 4.84016 41.7595 4.91895 41.8385C4.99775 41.9175 5.04202 42.0247 5.04202 42.1365V46.3505C5.04202 46.4622 4.99775 46.5694 4.91895 46.6484C4.84016 46.7274 4.73328 46.7718 4.62185 46.7718ZM0.840336 45.9291H4.20168V42.5579H0.840336V45.9291Z" fill="#244D4D"/>
<path d="M44.9578 46.7718H40.7561C40.6447 46.7718 40.5378 46.7274 40.459 46.6484C40.3802 46.5694 40.3359 46.4622 40.3359 46.3505V42.1365C40.3359 42.0247 40.3802 41.9175 40.459 41.8385C40.5378 41.7595 40.6447 41.7151 40.7561 41.7151H44.9578C45.0692 41.7151 45.1761 41.7595 45.2549 41.8385C45.3337 41.9175 45.378 42.0247 45.378 42.1365V46.3505C45.378 46.4622 45.3337 46.5694 45.2549 46.6484C45.1761 46.7274 45.0692 46.7718 44.9578 46.7718ZM41.1763 45.9291H44.5376V42.5579H41.1763V45.9291Z" fill="#244D4D"/>
<path d="M40.7561 44.6648H4.62159C4.51016 44.6648 4.40329 44.6204 4.32449 44.5414C4.24569 44.4623 4.20143 44.3552 4.20143 44.2434V42.5578H2.52075C2.40932 42.5578 2.30245 42.5134 2.22365 42.4344C2.14485 42.3553 2.10059 42.2482 2.10059 42.1364V5.8963C2.10059 5.78454 2.14485 5.67736 2.22365 5.59833C2.30245 5.51931 2.40932 5.4749 2.52075 5.4749H4.20143V3.78932C4.20143 3.67756 4.24569 3.57038 4.32449 3.49135C4.40329 3.41232 4.51016 3.36792 4.62159 3.36792H40.7561C40.8675 3.36792 40.9744 3.41232 41.0532 3.49135C41.132 3.57038 41.1762 3.67756 41.1762 3.78932V5.4749H42.8569C42.9683 5.4749 43.0752 5.51931 43.154 5.59833C43.2328 5.67736 43.2771 5.78454 43.2771 5.8963V27.3875C43.2771 27.4993 43.2328 27.6065 43.154 27.6855C43.0752 27.7645 42.9683 27.8089 42.8569 27.8089C42.7455 27.8089 42.6386 27.7645 42.5598 27.6855C42.481 27.6065 42.4367 27.4993 42.4367 27.3875V6.3177H40.7561C40.6446 6.3177 40.5377 6.27329 40.4589 6.19427C40.3801 6.11524 40.3359 6.00806 40.3359 5.8963V4.21071H5.04176V5.8963C5.04176 6.00806 4.9975 6.11524 4.9187 6.19427C4.8399 6.27329 4.73303 6.3177 4.62159 6.3177H2.94092V41.715H4.62159C4.73303 41.715 4.8399 41.7594 4.9187 41.8384C4.9975 41.9175 5.04176 42.0246 5.04176 42.1364V43.822H40.3359V42.1364C40.3359 42.0246 40.3801 41.9175 40.4589 41.8384C40.5377 41.7594 40.6446 41.715 40.7561 41.715H42.4367V37.501C42.4367 37.3893 42.481 37.2821 42.5598 37.2031C42.6386 37.1241 42.7455 37.0797 42.8569 37.0797C42.9683 37.0797 43.0752 37.1241 43.154 37.2031C43.2328 37.2821 43.2771 37.3893 43.2771 37.501V42.1364C43.2771 42.2482 43.2328 42.3553 43.154 42.4344C43.0752 42.5134 42.9683 42.5578 42.8569 42.5578H41.1762V44.2434C41.1762 44.3552 41.132 44.4623 41.0532 44.5414C40.9744 44.6204 40.8675 44.6648 40.7561 44.6648Z" fill="#244D4D"/>
<path d="M14.2854 48.0362H12.6047C12.4933 48.0362 12.3864 47.9917 12.3076 47.9127C12.2288 47.8337 12.1846 47.7265 12.1846 47.6148C12.1846 47.503 12.2288 47.3958 12.3076 47.3168C12.3864 47.2378 12.4933 47.1934 12.6047 47.1934H14.2854C14.3968 47.1934 14.5037 47.2378 14.5825 47.3168C14.6613 47.3958 14.7056 47.503 14.7056 47.6148C14.7056 47.7265 14.6613 47.8337 14.5825 47.9127C14.5037 47.9917 14.3968 48.0362 14.2854 48.0362Z" fill="#244D4D"/>
<path d="M32.7728 48.0362H15.9661C15.8546 48.0362 15.7478 47.9917 15.669 47.9127C15.5902 47.8337 15.5459 47.7265 15.5459 47.6148C15.5459 47.503 15.5902 47.3958 15.669 47.3168C15.7478 47.2378 15.8546 47.1934 15.9661 47.1934H32.7728C32.8842 47.1934 32.9911 47.2378 33.0699 47.3168C33.1487 47.3958 33.193 47.503 33.193 47.6148C33.193 47.7265 33.1487 47.8337 33.0699 47.9127C32.9911 47.9917 32.8842 48.0362 32.7728 48.0362Z" fill="#244D4D"/>
<path d="M32.7727 0.839619H31.092C30.9806 0.839619 30.8737 0.795216 30.7949 0.716189C30.7161 0.637162 30.6719 0.529984 30.6719 0.418223C30.6719 0.306461 30.7161 0.199284 30.7949 0.120256C30.8737 0.0412293 30.9806 -0.00317383 31.092 -0.00317383H32.7727C32.8842 -0.00317383 32.991 0.0412293 33.0698 0.120256C33.1486 0.199284 33.1929 0.306461 33.1929 0.418223C33.1929 0.529984 33.1486 0.637162 33.0698 0.716189C32.991 0.795216 32.8842 0.839619 32.7727 0.839619Z" fill="#244D4D"/>
<path d="M29.4115 0.839619H12.6047C12.4933 0.839619 12.3864 0.795216 12.3076 0.716189C12.2288 0.637162 12.1846 0.529984 12.1846 0.418223C12.1846 0.306461 12.2288 0.199284 12.3076 0.120256C12.3864 0.0412293 12.4933 -0.00317383 12.6047 -0.00317383H29.4115C29.5229 -0.00317383 29.6298 0.0412293 29.7086 0.120256C29.7874 0.199284 29.8316 0.306461 29.8316 0.418223C29.8316 0.529984 29.7874 0.637162 29.7086 0.716189C29.6298 0.795216 29.5229 0.839619 29.4115 0.839619Z" fill="#244D4D"/>
<path d="M18.2771 25.2807C16.6982 25.2807 15.1547 24.8111 13.8419 23.9313C12.5291 23.0515 11.5059 21.8011 10.9016 20.3381C10.2974 18.8751 10.1393 17.2652 10.4473 15.7121C10.7554 14.159 11.5157 12.7324 12.6322 11.6126C13.7486 10.4929 15.1711 9.73036 16.7197 9.42142C18.2683 9.11249 19.8734 9.27106 21.3322 9.87705C22.7909 10.483 24.0377 11.5093 24.9149 12.8259C25.7921 14.1426 26.2603 15.6906 26.2603 17.2741C26.2578 19.3968 25.4159 21.4319 23.9193 22.9328C22.4228 24.4338 20.3937 25.2782 18.2771 25.2807ZM18.2771 10.1104C16.8644 10.1104 15.4834 10.5305 14.3088 11.3177C13.1341 12.1048 12.2186 13.2237 11.678 14.5327C11.1374 15.8417 10.9959 17.2821 11.2715 18.6717C11.5471 20.0613 12.2274 21.3378 13.2264 22.3397C14.2253 23.3415 15.4981 24.0238 16.8836 24.3002C18.2692 24.5766 19.7054 24.4348 21.0106 23.8926C22.3158 23.3503 23.4313 22.4322 24.2162 21.2541C25.0011 20.076 25.42 18.691 25.42 17.2741C25.4181 15.3748 24.6649 13.5538 23.3258 12.2108C21.9866 10.8677 20.1709 10.1123 18.2771 10.1104Z" fill="#244D4D"/>
<path d="M33.4031 25.2806C33.3378 25.2804 33.2734 25.2649 33.2151 25.2353L18.089 17.6502C18.0197 17.615 17.9614 17.5613 17.9207 17.4949C17.88 17.4285 17.8584 17.3521 17.8584 17.2741C17.8584 17.1962 17.88 17.1197 17.9207 17.0533C17.9614 16.9869 18.0197 16.9332 18.089 16.898L33.2151 9.31286C33.2791 9.28074 33.3502 9.26555 33.4217 9.26872C33.4932 9.2719 33.5627 9.29335 33.6236 9.33102C33.6846 9.36869 33.7349 9.42136 33.7698 9.484C33.8048 9.54664 33.8232 9.61719 33.8233 9.68896V24.8592C33.8233 24.971 33.779 25.0782 33.7002 25.1572C33.6214 25.2362 33.5146 25.2806 33.4031 25.2806ZM19.2162 17.2741L32.983 24.1776V10.3737L19.2162 17.2741Z" fill="#244D4D"/>
<path d="M19.3279 36.2369C19.2742 36.2369 19.2211 36.2265 19.1713 36.2064L10.768 32.8352C10.6903 32.8038 10.6237 32.7498 10.5768 32.6802C10.5299 32.6105 10.5049 32.5284 10.5049 32.4444C10.5049 32.3603 10.5299 32.2782 10.5768 32.2086C10.6237 32.1389 10.6903 32.0849 10.768 32.0535L19.1713 28.6824C19.2351 28.6567 19.3042 28.6472 19.3725 28.6545C19.4408 28.6618 19.5063 28.6859 19.5632 28.7245C19.62 28.763 19.6666 28.815 19.6988 28.8758C19.7311 28.9366 19.748 29.0043 19.748 29.0732V35.8155C19.748 35.8844 19.7311 35.9522 19.6988 36.013C19.6666 36.0738 19.62 36.1257 19.5632 36.1643C19.4937 36.2115 19.4118 36.2368 19.3279 36.2369ZM12.0589 32.4444L18.9108 35.194V29.6958L12.0589 32.4444Z" fill="#244D4D"/>
<path d="M14.7152 34.3902C14.6038 34.3902 14.4969 34.3458 14.4181 34.2667C14.3393 34.1877 14.2951 34.0805 14.2951 33.9688V31.5457L11.0808 32.8352C11.0292 32.8585 10.9735 32.871 10.917 32.8722C10.8605 32.8734 10.8044 32.8631 10.7519 32.8419C10.6995 32.8208 10.6518 32.7893 10.6118 32.7493C10.5718 32.7093 10.5402 32.6616 10.519 32.609C10.4978 32.5565 10.4874 32.5002 10.4883 32.4435C10.4893 32.3868 10.5017 32.331 10.5247 32.2792C10.5478 32.2274 10.581 32.1809 10.6224 32.1423C10.6638 32.1037 10.7125 32.0738 10.7656 32.0546L14.5556 30.5323C14.6194 30.5066 14.6885 30.497 14.7569 30.5044C14.8253 30.5117 14.8908 30.5358 14.9478 30.5745C15.0047 30.6132 15.0513 30.6653 15.0835 30.7263C15.1156 30.7872 15.1324 30.8552 15.1322 30.9242V33.9656C15.1322 34.0774 15.088 34.1845 15.0092 34.2636C14.9304 34.3426 14.8235 34.387 14.7121 34.387L14.7152 34.3902Z" fill="#244D4D"/>
<path d="M47.4787 36.237H19.3274C19.216 36.237 19.1091 36.1926 19.0303 36.1136C18.9515 36.0345 18.9072 35.9274 18.9072 35.8156V29.0733C18.9072 28.9615 18.9515 28.8543 19.0303 28.7753C19.1091 28.6963 19.216 28.6519 19.3274 28.6519H47.4787C48.1473 28.6519 48.7885 28.9182 49.2613 29.3924C49.7341 29.8666 49.9997 30.5097 49.9997 31.1802V33.7086C49.9997 34.3792 49.7341 35.0223 49.2613 35.4964C48.7885 35.9706 48.1473 36.237 47.4787 36.237ZM19.7476 35.3942H47.4787C47.9244 35.3942 48.3519 35.2166 48.6671 34.9005C48.9823 34.5844 49.1593 34.1557 49.1593 33.7086V31.1802C49.1593 30.7332 48.9823 30.3045 48.6671 29.9883C48.3519 29.6722 47.9244 29.4946 47.4787 29.4946H19.7476V35.3942Z" fill="#244D4D"/>
<path d="M45.3782 36.237H40.3362C40.2247 36.237 40.1179 36.1926 40.0391 36.1136C39.9603 36.0345 39.916 35.9274 39.916 35.8156V29.0733C39.916 28.9615 39.9603 28.8543 40.0391 28.7753C40.1179 28.6963 40.2247 28.6519 40.3362 28.6519H45.3782C45.4896 28.6519 45.5965 28.6963 45.6753 28.7753C45.7541 28.8543 45.7984 28.9615 45.7984 29.0733V35.8156C45.7984 35.9274 45.7541 36.0345 45.6753 36.1136C45.5965 36.1926 45.4896 36.237 45.3782 36.237ZM40.7564 35.3942H44.958V29.4946H40.7564V35.3942Z" fill="#244D4D"/>
<path d="M40.3358 32.8657H19.3274C19.216 32.8657 19.1091 32.8213 19.0303 32.7423C18.9515 32.6633 18.9072 32.5561 18.9072 32.4443C18.9072 32.3326 18.9515 32.2254 19.0303 32.1464C19.1091 32.0674 19.216 32.0229 19.3274 32.0229H40.3358C40.4472 32.0229 40.5541 32.0674 40.6329 32.1464C40.7117 32.2254 40.756 32.3326 40.756 32.4443C40.756 32.5561 40.7117 32.6633 40.6329 32.7423C40.5541 32.8213 40.4472 32.8657 40.3358 32.8657Z" fill="#244D4D"/>
</g>
<defs>
<clipPath id="clip0_3266_2108">
<rect width="50" height="48.0392" fill="white"/>
</clipPath>
</defs>
</svg>
