<svg width="100" height="16" viewBox="0 0 100 16" fill="none" xmlns="http://www.w3.org/2000/svg">
<path d="M9.15327 2.33977L10.3266 4.68643C10.4866 5.0131 10.9133 5.32643 11.2733 5.38643L13.3999 5.73977C14.7599 5.96643 15.0799 6.9531 14.0999 7.92643L12.4466 9.57977C12.1666 9.85977 12.0133 10.3998 12.0999 10.7864L12.5733 12.8331C12.9466 14.4531 12.0866 15.0798 10.6533 14.2331L8.65994 13.0531C8.29994 12.8398 7.70661 12.8398 7.33994 13.0531L5.34661 14.2331C3.91994 15.0798 3.05327 14.4464 3.42661 12.8331L3.89994 10.7864C3.98661 10.3998 3.83327 9.85977 3.55327 9.57977L1.89994 7.92643C0.926606 6.9531 1.23994 5.96643 2.59994 5.73977L4.72661 5.38643C5.07994 5.32643 5.50661 5.0131 5.66661 4.68643L6.83994 2.33977C7.47994 1.06643 8.51994 1.06643 9.15327 2.33977Z" fill="#FAB702"/>
<path d="M30.1533 2.33977L31.3266 4.68643C31.4866 5.0131 31.9133 5.32643 32.2733 5.38643L34.3999 5.73977C35.7599 5.96643 36.0799 6.9531 35.0999 7.92643L33.4466 9.57977C33.1666 9.85977 33.0133 10.3998 33.0999 10.7864L33.5733 12.8331C33.9466 14.4531 33.0866 15.0798 31.6533 14.2331L29.6599 13.0531C29.2999 12.8398 28.7066 12.8398 28.3399 13.0531L26.3466 14.2331C24.9199 15.0798 24.0533 14.4464 24.4266 12.8331L24.8999 10.7864C24.9866 10.3998 24.8333 9.85977 24.5533 9.57977L22.8999 7.92643C21.9266 6.9531 22.2399 5.96643 23.5999 5.73977L25.7266 5.38643C26.0799 5.32643 26.5066 5.0131 26.6666 4.68643L27.8399 2.33977C28.4799 1.06643 29.5199 1.06643 30.1533 2.33977Z" fill="#FAB702"/>
<path d="M51.1533 2.33977L52.3266 4.68643C52.4866 5.0131 52.9133 5.32643 53.2733 5.38643L55.3999 5.73977C56.7599 5.96643 57.0799 6.9531 56.0999 7.92643L54.4466 9.57977C54.1666 9.85977 54.0133 10.3998 54.0999 10.7864L54.5733 12.8331C54.9466 14.4531 54.0866 15.0798 52.6533 14.2331L50.6599 13.0531C50.2999 12.8398 49.7066 12.8398 49.3399 13.0531L47.3466 14.2331C45.9199 15.0798 45.0533 14.4464 45.4266 12.8331L45.8999 10.7864C45.9866 10.3998 45.8333 9.85977 45.5533 9.57977L43.8999 7.92643C42.9266 6.9531 43.2399 5.96643 44.5999 5.73977L46.7266 5.38643C47.0799 5.32643 47.5066 5.0131 47.6666 4.68643L48.8399 2.33977C49.4799 1.06643 50.5199 1.06643 51.1533 2.33977Z" fill="#FAB702"/>
<path d="M72.1533 2.33977L73.3266 4.68643C73.4866 5.0131 73.9133 5.32643 74.2733 5.38643L76.3999 5.73977C77.7599 5.96643 78.0799 6.9531 77.0999 7.92643L75.4466 9.57977C75.1666 9.85977 75.0133 10.3998 75.0999 10.7864L75.5733 12.8331C75.9466 14.4531 75.0866 15.0798 73.6533 14.2331L71.6599 13.0531C71.2999 12.8398 70.7066 12.8398 70.3399 13.0531L68.3466 14.2331C66.9199 15.0798 66.0533 14.4464 66.4266 12.8331L66.8999 10.7864C66.9866 10.3998 66.8333 9.85977 66.5533 9.57977L64.8999 7.92643C63.9266 6.9531 64.2399 5.96643 65.5999 5.73977L67.7266 5.38643C68.0799 5.32643 68.5066 5.0131 68.6666 4.68643L69.8399 2.33977C70.4799 1.06643 71.5199 1.06643 72.1533 2.33977Z" fill="#FAB702"/>
<path d="M93.1533 2.33977L94.3266 4.68643C94.4866 5.0131 94.9133 5.32643 95.2733 5.38643L97.3999 5.73977C98.7599 5.96643 99.0799 6.9531 98.0999 7.92643L96.4466 9.57977C96.1666 9.85977 96.0133 10.3998 96.0999 10.7864L96.5733 12.8331C96.9466 14.4531 96.0866 15.0798 94.6533 14.2331L92.6599 13.0531C92.2999 12.8398 91.7066 12.8398 91.3399 13.0531L89.3466 14.2331C87.9199 15.0798 87.0533 14.4464 87.4266 12.8331L87.8999 10.7864C87.9866 10.3998 87.8333 9.85977 87.5533 9.57977L85.8999 7.92643C84.9266 6.9531 85.2399 5.96643 86.5999 5.73977L88.7266 5.38643C89.0799 5.32643 89.5066 5.0131 89.6666 4.68643L90.8399 2.33977C91.4799 1.06643 92.5199 1.06643 93.1533 2.33977Z" fill="#FAB702"/>
</svg>
