<svg width="25" height="10" viewBox="0 0 25 10" fill="none" xmlns="http://www.w3.org/2000/svg">
<g clip-path="url(#clip0_311_227)">
<path d="M24.4831 5.03928H0.51564C0.447901 5.03936 0.380811 5.02608 0.318212 5.0002C0.255613 4.97432 0.198734 4.93633 0.150835 4.88844C0.102936 4.84054 0.0649598 4.78366 0.039077 4.72106C0.0131942 4.65846 -8.57109e-05 4.59137 4.16261e-07 4.52363C3.61622e-07 4.45595 0.0133474 4.38893 0.0392687 4.32641C0.06519 4.26389 0.103177 4.20709 0.151067 4.15926C0.198957 4.11143 0.255808 4.07351 0.318364 4.04767C0.380921 4.02182 0.447956 4.00857 0.51564 4.00865H23.2385L20.1106 0.880133C20.0627 0.8323 20.0247 0.77549 19.9987 0.712947C19.9728 0.650405 19.9594 0.583355 19.9594 0.515648C19.9594 0.44794 19.9728 0.380906 19.9987 0.318364C20.0247 0.255822 20.0627 0.199011 20.1106 0.151178C20.1584 0.103258 20.2152 0.0652394 20.2778 0.0393002C20.3403 0.0133611 20.4074 0 20.4751 0C20.5428 0 20.6098 0.0133611 20.6724 0.0393002C20.7349 0.0652394 20.7917 0.103258 20.8396 0.151178L24.8488 4.15982C24.9212 4.23181 24.9704 4.32375 24.9903 4.42388C25.0101 4.52401 24.9996 4.62778 24.9601 4.72191C24.9206 4.81585 24.8543 4.89607 24.7694 4.95251C24.6846 5.00896 24.585 5.03914 24.4831 5.03928Z" fill="#595959"/>
<path d="M20.4692 9.0532C20.4015 9.05351 20.3345 9.04029 20.272 9.01433C20.2095 8.98837 20.1528 8.9502 20.1053 8.90204C20.0574 8.85415 20.0193 8.79727 19.9934 8.73468C19.9675 8.67208 19.9541 8.605 19.9541 8.53723C19.9541 8.46947 19.9675 8.40237 19.9934 8.33977C20.0193 8.27718 20.0574 8.2203 20.1053 8.17241L24.1192 4.15855C24.1671 4.11061 24.224 4.07257 24.2866 4.04662C24.3491 4.02068 24.4162 4.00732 24.484 4.00732C24.5518 4.00732 24.6189 4.02068 24.6815 4.04662C24.7441 4.07257 24.8009 4.11061 24.8488 4.15855C24.8967 4.20644 24.9348 4.2633 24.9607 4.3259C24.9867 4.38849 25 4.45559 25 4.52336C25 4.59112 24.9867 4.65822 24.9607 4.72081C24.9348 4.78341 24.8967 4.84027 24.8488 4.88816L20.8349 8.90204C20.787 8.95014 20.73 8.98826 20.6672 9.0142C20.6044 9.04015 20.5371 9.05341 20.4692 9.0532Z" fill="#595959"/>
</g>
<defs>
<clipPath id="clip0_311_227">
<rect width="25" height="9.05379" fill="white"/>
</clipPath>
</defs>
</svg>
