<svg width="35" height="43" viewBox="0 0 35 43" fill="none" xmlns="http://www.w3.org/2000/svg">
<g clip-path="url(#clip0_3266_2102)">
<path d="M17.0394 37.6027C17.1251 37.6026 17.2098 37.5834 17.2871 37.5464C17.3644 37.5093 17.4325 37.4554 17.4862 37.3886L17.6837 37.1415C21.6688 32.1766 31.0016 20.5478 31.0016 13.9633C30.9976 10.2615 29.5253 6.71241 26.9077 4.09468C24.2902 1.47696 20.7412 0.00438039 17.0394 0C13.3375 0.00438039 9.78852 1.47696 7.171 4.09468C4.55349 6.71241 3.08119 10.2615 3.0771 13.9633C3.0771 19.7932 10.3004 29.5442 16.5925 37.3886C16.6459 37.4545 16.713 37.5079 16.7893 37.5449C16.8656 37.5819 16.9491 37.6016 17.0338 37.6027H17.0394ZM17.0394 1.14521C20.4378 1.14901 23.6959 2.50072 26.099 4.90376C28.502 7.30681 29.8537 10.5649 29.8575 13.9633C29.8575 20.0183 21.0741 31.0855 17.0394 36.1154C13.1282 31.2311 4.22233 19.8969 4.22233 13.9633C4.22758 10.5661 5.57977 7.30954 7.98242 4.90772C10.3851 2.5059 13.6421 1.15482 17.0394 1.15073V1.14521ZM25.5646 13.9435C25.5619 11.6834 24.6629 9.51662 23.0646 7.91858C21.4664 6.32054 19.2995 5.42173 17.0394 5.4194C14.7781 5.42144 12.6101 6.32088 11.0114 7.92014C9.4128 9.5194 8.51423 11.6878 8.51306 13.949C8.51569 16.2089 9.4146 18.3756 11.0126 19.9736C12.6106 21.5716 14.7772 22.4705 17.0372 22.4731C19.2977 22.4714 21.4651 21.5728 23.0638 19.9747C24.6626 18.3766 25.5619 16.2095 25.5646 13.949V13.9435ZM17.0394 21.3224C15.0844 21.3189 13.2104 20.5411 11.8275 19.1592C10.4446 17.7774 9.66546 15.904 9.6605 13.949C9.66371 11.9929 10.4421 10.1178 11.8252 8.73452C13.2083 7.35124 15.0833 6.57256 17.0394 6.56905C18.9957 6.57226 20.8709 7.3508 22.2543 8.73412C23.6376 10.1174 24.4161 11.9927 24.4193 13.949C24.4158 15.9051 23.6372 17.7801 22.2539 19.1632C20.8706 20.5463 18.9955 21.3247 17.0394 21.3279V21.3224ZM35 36.4563C35 40.2958 25.9838 42.3667 17.5006 42.3667C9.01727 42.3667 0 40.2958 0 36.4563C0 34.1317 3.57028 32.1535 9.54906 31.1605C9.62357 31.1477 9.69987 31.1498 9.77356 31.1667C9.84726 31.1835 9.91688 31.2148 9.97843 31.2587C10.04 31.3026 10.0922 31.3583 10.1321 31.4225C10.1721 31.4867 10.1989 31.5581 10.211 31.6327C10.224 31.7072 10.222 31.7834 10.2053 31.8571C10.1886 31.9308 10.1574 32.0004 10.1136 32.062C10.0698 32.1236 10.0142 32.1758 9.95007 32.2158C9.88593 32.2557 9.81451 32.2825 9.73993 32.2947C3.80638 33.2777 1.14964 35.0949 1.14964 36.4597C1.14964 38.7137 7.86653 41.2259 17.505 41.2259C27.1434 41.2259 33.8592 38.7137 33.8592 36.4597C33.8592 35.0485 30.9211 33.1034 24.469 32.1711C24.3188 32.1493 24.1833 32.0687 24.0925 31.947C24.0017 31.8254 23.9629 31.6726 23.9846 31.5224C23.9952 31.4479 24.0204 31.3762 24.0587 31.3114C24.0971 31.2467 24.1479 31.1902 24.2082 31.1452C24.2685 31.1001 24.3371 31.0675 24.4101 31.0491C24.4831 31.0307 24.5589 31.027 24.6334 31.038C31.1274 31.9769 35.0044 34.0037 35.0044 36.4597L35 36.4563Z" fill="#244D4D"/>
</g>
<defs>
<clipPath id="clip0_3266_2102">
<rect width="35" height="42.3667" fill="white"/>
</clipPath>
</defs>
</svg>
