<svg width="50" height="50" viewBox="0 0 50 50" fill="none" xmlns="http://www.w3.org/2000/svg">
<g clip-path="url(#clip0_3266_2144)">
<path fill-rule="evenodd" clip-rule="evenodd" d="M24.9023 46.0691C13.2812 46.0691 3.90625 36.5964 3.90625 24.9753C3.90625 13.3542 13.3789 3.88159 25 3.88159C36.6211 3.88159 46.0938 13.3542 46.0938 24.9753C45.9961 36.5964 36.5234 46.0691 24.9023 46.0691Z" fill="#244D4D"/>
<path fill-rule="evenodd" clip-rule="evenodd" d="M23.0471 1.53784C22.9567 1.53998 22.8669 1.52378 22.783 1.49019C22.699 1.45659 22.6228 1.40631 22.5589 1.3424C22.495 1.27849 22.4447 1.20229 22.4111 1.11838C22.3775 1.03448 22.3613 0.944602 22.3635 0.854246C22.3635 0.463621 22.6564 0.0729963 23.0471 0.0729963C24.1843 -0.0246576 25.3278 -0.0246576 26.465 0.0729963C26.5554 0.0708568 26.6452 0.0870835 26.7291 0.12068C26.813 0.154276 26.8893 0.204559 26.9532 0.268468C27.0171 0.332377 27.0674 0.408581 27.1009 0.492486C27.1345 0.57639 27.1508 0.666234 27.1486 0.75659C27.051 1.24487 26.758 1.53784 26.3674 1.44018C25.2932 1.34253 24.1213 1.34253 23.1447 1.53784H23.0471Z" fill="#244D4D"/>
<path fill-rule="evenodd" clip-rule="evenodd" d="M21.4844 35.8152C21.3033 35.8115 21.1298 35.7421 20.9961 35.6199L12.207 26.8308C11.5234 26.2449 11.2305 25.4636 11.2305 24.5847C11.2305 23.7058 11.5234 22.8269 12.207 22.3386C13.3789 21.0691 15.5273 21.0691 16.7969 22.241L21.3867 26.8308L33.1055 15.1121C34.375 13.8425 36.5234 13.8425 37.6953 15.1121C38.3789 15.698 38.6719 16.4792 38.6719 17.4558C38.6791 17.8926 38.5962 18.3263 38.4281 18.7296C38.2601 19.1329 38.0106 19.4971 37.6953 19.7996L22.0703 35.4246C21.9727 35.4246 21.9727 35.5222 21.9727 35.6199C21.8214 35.7107 21.6565 35.7766 21.4844 35.8152Z" fill="white"/>
<path fill-rule="evenodd" clip-rule="evenodd" d="M38.3784 5.444C38.1831 5.444 38.0855 5.34634 37.9878 5.34634C37.6018 5.02989 37.1747 4.76709 36.7183 4.56509C36.1962 4.21651 35.6399 3.92203 35.0581 3.68618C34.7651 3.49087 34.5698 3.00259 34.7651 2.70962C34.8625 2.54829 35.0164 2.42894 35.1969 2.37479C35.3774 2.32064 35.5716 2.33556 35.7417 2.41665C36.23 2.70962 36.8159 3.00259 37.4995 3.39322C37.9438 3.61774 38.3684 3.87907 38.769 4.17447C39.062 4.36978 39.1597 4.7604 38.9644 5.15103C38.8912 5.23646 38.8016 5.30639 38.701 5.3567C38.6004 5.40702 38.4907 5.43669 38.3784 5.444Z" fill="#244D4D"/>
<path fill-rule="evenodd" clip-rule="evenodd" d="M46.6794 14.819C46.3865 14.819 46.1911 14.7214 45.9958 14.4284C45.8005 14.0378 45.6052 13.6472 45.4099 13.1589L45.2146 12.8659C44.9216 12.4753 44.7263 12.0847 44.4333 11.694C44.3697 11.6262 44.3213 11.5456 44.2914 11.4576C44.2615 11.3695 44.2508 11.2761 44.2601 11.1836C44.2693 11.091 44.2983 11.0015 44.345 10.9211C44.3917 10.8407 44.4552 10.7713 44.531 10.7175C44.9216 10.4245 45.3122 10.5222 45.5075 10.9128C45.8232 11.3198 46.1166 11.7436 46.3865 12.1823L46.5818 12.4753C46.8747 12.8659 47.07 13.3542 47.2654 13.8425C47.3464 14.0126 47.3614 14.2068 47.3072 14.3873C47.2531 14.5678 47.1337 14.7216 46.9724 14.819H46.6794Z" fill="#244D4D"/>
<path fill-rule="evenodd" clip-rule="evenodd" d="M49.2191 27.1238H49.1215C48.7308 27.1238 48.4379 26.8308 48.5355 26.4402V23.1199C48.4379 22.7292 48.7308 22.4363 49.1215 22.3386C49.6097 22.3386 49.9027 22.6316 49.9027 23.0222C49.9839 23.6699 50.0166 24.3228 50.0004 24.9753V26.5378C49.9631 26.7135 49.8633 26.8697 49.7197 26.9774C49.576 27.0852 49.3982 27.1371 49.2191 27.1238Z" fill="#244D4D"/>
<path fill-rule="evenodd" clip-rule="evenodd" d="M45.2152 39.0378C45.1176 39.0378 44.9223 39.0378 44.8246 38.9402C44.6796 38.8285 44.5799 38.668 44.544 38.4885C44.5081 38.309 44.5384 38.1225 44.6293 37.9636C44.9231 37.5963 45.1845 37.2042 45.4106 36.7917V36.6941C45.7035 36.2058 45.9965 35.6199 46.2895 35.1316C46.3871 34.741 46.8754 34.6433 47.1684 34.8386C47.559 34.9363 47.6566 35.4246 47.559 35.7175C47.266 36.2058 46.9731 36.8894 46.6801 37.4753C46.3636 37.8614 46.1008 38.2884 45.8988 38.7449C45.7141 38.9223 45.4711 39.0264 45.2152 39.0378Z" fill="#244D4D"/>
<path fill-rule="evenodd" clip-rule="evenodd" d="M35.7418 47.4363C35.6209 47.42 35.5053 47.3763 35.4038 47.3086C35.3023 47.2409 35.2175 47.151 35.1559 47.0457C35.0748 46.8756 35.0599 46.6814 35.114 46.5009C35.1682 46.3204 35.2875 46.1665 35.4489 46.0691C35.9372 45.8738 36.3278 45.5808 36.7184 45.3855C37.2067 45.0925 37.7926 44.7996 38.2809 44.409C38.3578 44.3549 38.4447 44.3168 38.5365 44.2968C38.6284 44.2768 38.7233 44.2755 38.8157 44.2928C38.908 44.3101 38.996 44.3456 39.0744 44.3974C39.1528 44.4493 39.2201 44.5162 39.2722 44.5944C39.3244 44.6726 39.3603 44.7605 39.378 44.8528C39.3956 44.9451 39.3947 45.04 39.3751 45.1319C39.3555 45.2238 39.3177 45.3109 39.264 45.388C39.2103 45.4651 39.1416 45.5307 39.0622 45.5808C38.5739 45.9715 37.9879 46.2644 37.402 46.5574C37.0114 46.8504 36.5231 47.0457 36.0348 47.3386C36.0348 47.4363 35.9372 47.4363 35.7418 47.4363Z" fill="#244D4D"/>
<path fill-rule="evenodd" clip-rule="evenodd" d="M24.9025 49.9753C24.4122 49.9914 23.9215 49.9587 23.4377 49.8776C23.3473 49.8797 23.2575 49.8635 23.1736 49.8299C23.0897 49.7963 23.0135 49.7461 22.9495 49.6822C22.8856 49.6182 22.8354 49.542 22.8018 49.4581C22.7682 49.3742 22.752 49.2844 22.7541 49.194C22.8517 48.7057 23.1447 48.4128 23.5353 48.5104H26.8557C27.2463 48.4128 27.5392 48.7057 27.5392 49.194C27.6369 49.5846 27.3439 49.8776 26.9533 49.8776C26.2729 49.9588 25.5876 49.9915 24.9025 49.9753Z" fill="#244D4D"/>
<path fill-rule="evenodd" clip-rule="evenodd" d="M14.4535 47.6314C14.4535 47.6314 14.2582 47.6314 14.2582 47.5337L12.5004 46.6548C12.0121 46.3619 11.6215 46.0689 11.2308 45.8736C10.8402 45.6783 10.8402 45.19 11.0355 44.897C11.2308 44.6041 11.6215 44.5064 12.0121 44.7017C12.4027 44.897 12.7933 45.19 13.184 45.3853C13.6732 45.7312 14.1968 46.0257 14.7465 46.2642C15.1371 46.4595 15.3324 46.8501 15.1371 47.2408C15.0649 47.3579 14.9646 47.4551 14.8451 47.5233C14.7257 47.5916 14.591 47.6287 14.4535 47.6314Z" fill="#244D4D"/>
<path fill-rule="evenodd" clip-rule="evenodd" d="M4.98013 39.4283C4.85177 39.4319 4.72416 39.4075 4.60613 39.357C4.4881 39.3064 4.38247 39.2307 4.29653 39.1353C4.00356 38.647 3.7106 38.0611 3.31997 37.4752C3.12466 37.0845 2.83169 36.5963 2.63638 36.108C2.55529 35.9379 2.54037 35.7437 2.59452 35.5632C2.64866 35.3827 2.76801 35.2288 2.92935 35.1314C3.31997 35.0338 3.7106 35.1314 3.80825 35.522C4.07208 35.8905 4.30094 36.2829 4.49185 36.6939C4.88247 37.2799 5.17544 37.8658 5.46841 38.2564C5.66372 38.647 5.56606 39.0377 5.2731 39.233C5.17544 39.4283 5.07778 39.4283 4.98013 39.4283Z" fill="#244D4D"/>
<path fill-rule="evenodd" clip-rule="evenodd" d="M0.781374 27.6121C0.691018 27.6142 0.601168 27.598 0.517264 27.5644C0.433359 27.5308 0.357145 27.4805 0.293236 27.4166C0.229327 27.3527 0.179052 27.2765 0.145456 27.1926C0.111859 27.1087 0.0956406 27.0188 0.0977801 26.9285C0.0165693 26.2808 -0.0160738 25.6279 0.000123888 24.9753V23.5105C0.0977801 23.0222 0.390749 22.8269 0.781374 22.8269C1.172 22.8269 1.46497 23.2175 1.46497 23.6082V23.7058C1.38398 24.1239 1.35121 24.5498 1.36731 24.9753C1.36731 25.6589 1.46497 26.2449 1.46497 26.8308C1.4882 26.9216 1.49077 27.0164 1.47248 27.1084C1.45418 27.2003 1.41549 27.2869 1.35926 27.3619C1.30303 27.4369 1.2307 27.4983 1.14758 27.5416C1.06447 27.5849 0.972695 27.6089 0.87903 27.6121H0.781374Z" fill="#244D4D"/>
<path fill-rule="evenodd" clip-rule="evenodd" d="M3.12545 15.3073C3.02779 15.3073 2.83248 15.3073 2.83248 15.2097C2.44186 15.0144 2.24654 14.6237 2.44186 14.2331C2.63717 13.6472 3.02779 13.1589 3.32076 12.4753C3.61373 11.987 3.9067 11.5964 4.10201 11.2058C4.15585 11.13 4.2253 11.0665 4.30569 11.0198C4.38608 10.9731 4.47556 10.9441 4.56809 10.9349C4.66061 10.9256 4.75405 10.9363 4.84211 10.9662C4.93016 10.9961 5.01079 11.0445 5.07858 11.1081C5.37154 11.3034 5.4692 11.6941 5.27389 12.0847C5.07858 12.3777 4.78561 12.7683 4.49264 13.2566C4.19967 13.8425 3.9067 14.3308 3.61373 14.8191C3.60601 14.946 3.55209 15.0658 3.46214 15.1558C3.37219 15.2457 3.25243 15.2996 3.12545 15.3073Z" fill="#244D4D"/>
<path fill-rule="evenodd" clip-rule="evenodd" d="M11.2309 5.63931C11.0356 5.63931 10.7426 5.54165 10.645 5.34634C10.352 5.05337 10.4496 4.66275 10.8403 4.36978C11.3285 4.07681 11.9145 3.68618 12.4028 3.39322C12.891 3.1979 13.2817 2.90493 13.77 2.70962C13.9401 2.62853 14.1342 2.61361 14.3147 2.66776C14.4952 2.7219 14.6491 2.84126 14.7465 3.00259C14.8442 3.39322 14.7465 3.78384 14.3559 3.8815C13.9653 4.17447 13.477 4.36978 13.0864 4.56509C12.5981 4.85806 12.0121 5.15103 11.5239 5.54165C11.5239 5.63931 11.3285 5.63931 11.2309 5.63931Z" fill="#244D4D"/>
</g>
<defs>
<clipPath id="clip0_3266_2144">
<rect width="50" height="49.9753" fill="white"/>
</clipPath>
</defs>
</svg>
